<?xml version="1.0" encoding="utf-8"?><!-- Uploaded to: SVG Repo, www.svgrepo.com, Generator: SVG Repo Mixer Tools -->
<svg width="800px" height="800px" viewBox="0 0 16 16" fill="none" xmlns="http://www.w3.org/2000/svg">
<path d="M11.5 3C12.3284 3 13 2.32843 13 1.5C13 0.671573 12.3284 0 11.5 0C10.6716 0 10 0.671573 10 1.5C10 2.32843 10.6716 3 11.5 3Z" fill="#000000"/>
<path d="M0 12C0 10.4697 1.14578 9.20702 2.62626 9.02304L5.00001 10.6055V14.2361C4.46925 14.7111 3.76836 15 3 15C1.34315 15 0 13.6568 0 12Z" fill="#000000"/>
<path d="M11 14.2361C11.5308 14.7111 12.2316 15 13 15C14.6569 15 16 13.6569 16 12C16 10.3431 14.6569 9 13 9C12.2316 9 11.5308 9.28885 11 9.76389V14.2361Z" fill="#000000"/>
<path d="M8.28111 5.01444C8.29524 5.00503 8.31184 5 8.32881 5C8.36139 5 8.39117 5.0184 8.40574 5.04754L9.38197 7H13V5H10.618L10.1946 4.15311C9.84124 3.44641 9.11893 3 8.32881 3C7.91699 3 7.51437 3.1219 7.17171 3.35034L4.86132 4.8906C4.32322 5.24934 4 5.85327 4 6.5C4 7.14673 4.32322 7.75066 4.86132 8.1094L7 9.53518V13H9V8.46482L6.05278 6.5L8.28111 5.01444Z" fill="#000000"/>
</svg>